<?xml version="1.0" encoding="UTF-8"?><svg id="Layer_2" xmlns="http://www.w3.org/2000/svg" viewBox="0 0 1139.15 666.73"><defs><style>.cls-1{fill:#2563eb;}</style></defs><g id="Layer_1-2"><path class="cls-1" d="M378.5,469.61c-.4,4.22-1.16,8.44-1.16,12.66-.08,55.81-.04,111.61-.06,167.42,0,12.78-.05,12.78-12.68,12.81q-22.95,.04-22.95-22.58c0-80.82,0-161.64,0-242.47q0-12.85,12.59-12.9c8.99-.02,18.02,.58,26.95-.16,9.43-.78,13.38,2.47,15.37,12.05,8.87,42.68,18.61,85.19,28.1,127.74,.7,3.13,1.99,6.13,3.01,9.19l2.8,.04c1.12-3.4,2.56-6.74,3.32-10.22,9.15-41.93,18.44-83.84,27.11-125.87,1.95-9.45,5.57-13.86,15.81-12.98,10.2,.88,20.54,.53,30.79,.09,7.5-.33,10.09,2.37,10.03,9.97-.3,36.88-.13,73.77-.13,110.65,0,48.75-.2,97.5,.18,146.25,.07,8.84-2.49,11.56-11.44,11.4-26.45-.45-26.46-.08-26.46-26.1,0-51.64,.02-103.27-.05-154.91,0-3.95-.67-7.89-1.03-11.83-.99-.2-1.98-.4-2.97-.6-1.39,3.79-3.21,7.47-4.1,11.37-10.04,43.74-19.93,87.52-29.91,131.28-2.07,9.07-14.22,14.63-21.93,9.28-2.79-1.94-3.89-7.01-4.78-10.88-9.91-43.08-19.61-86.21-29.42-129.32-.88-3.87-2.12-7.66-3.2-11.49-1.27,.04-2.54,.08-3.8,.12Z"/><path class="cls-1" d="M783.62,281.53c-13.22,0-24.43,.62-35.49-.43-2.8-.27-6.34-5.53-7.39-9.13-9.65-32.86-18.88-65.86-28.11-98.84-1.76-6.27-3.76-11.01-11.97-10.86-13.19,.24-14.03,.52-14.05,14-.03,31.73-.24,63.46,.14,95.18,.1,8.08-2.63,10.95-10.54,10.26-6.05-.53-12.23-.58-18.26,0-8.38,.82-10.27-2.96-10.18-10.6,.33-30.12,.13-60.25,.13-90.37,0-55.12,.15-110.25-.16-165.37-.05-8.51,1.91-12.06,11.21-11.59,21.1,1.06,42.43-.46,63.33,1.98,31.75,3.71,48.64,20.55,51.98,52.18,1.99,18.91,.62,38.35-.98,57.4-1.13,13.42-8,25.34-19.14,33.3-7.34,5.25-7.37,10.47-5.01,18.02,10.44,33.33,20.46,66.79,30.59,100.22,1.27,4.19,2.26,8.46,3.89,14.65Zm-96.97-199.22h-.05c0,8-.07,16.01,.01,24.01,.23,22.95-2.89,20.92,21.32,20.69,16.16-.16,26.46-8.5,28.06-24.45,1.3-12.92,1.1-26.17-.15-39.11-1.17-12.22-8.63-20.62-21.33-22.66-6.59-1.06-13.35-1.1-20.03-1.44-5.81-.3-7.89,3-7.85,8.39,.08,11.52,.02,23.05,.02,34.57Z"/><path class="cls-1" d="M296.21,523.34c0,25.34,.05,50.67,0,76.01-.15,64.46-61.5,78.87-100.84,58.46-21.49-11.15-30.52-31.25-30.87-54.19-.84-53.55-.95-107.13,.02-160.67,.46-25.25,10.79-46.69,36.05-56.48,26.1-10.11,51.99-8.97,74.6,9.15,15.21,12.19,20.71,29.8,20.95,48.82,.33,26.29,.08,52.6,.11,78.89Zm-37.84,.47h.15c0-23.41,.14-46.82-.1-70.22-.06-6.03-.63-12.24-2.21-18.03-3.27-11.98-13.45-19.1-25.86-19.11-12.55,0-22.57,6.88-25.84,19.06-1.8,6.71-2.51,13.9-2.55,20.88-.22,44.57-.21,89.14,0,133.71,.03,6.98,.6,14.2,2.44,20.89,3.8,13.83,17.55,21.46,31.61,18.52,13.87-2.9,21.92-13.24,22.24-30.67,.47-25,.12-50.02,.12-75.03Z"/><path class="cls-1" d="M477.84,121.65c0-35.57,.2-71.15-.15-106.72-.08-8.13,1.94-11.27,10.71-11.17,25.6,.3,25.61-.06,25.61,25.1,0,60.89-.02,121.78,.04,182.68,0,5.11,.1,10.29,.94,15.31,2.4,14.37,10.26,21.26,23.81,21.51,15.97,.29,23.49-5.25,26.49-20.39,1.11-5.59,1.25-11.45,1.26-17.18,.08-65.06,.23-130.12-.14-195.17-.05-9.3,2.67-12.85,11.95-11.75,5.06,.6,10.3,.55,15.37,0,8.58-.92,11.01,2.65,10.95,10.96-.32,43.26-.15,86.53-.15,129.8,0,25.96,.1,51.92-.05,77.88-.14,23.53-6.73,44.53-29.49,55.24-25.29,11.9-51.32,11.71-75.07-4.38-15.71-10.64-21.74-27.43-21.91-45.94-.32-35.25-.09-70.51-.09-105.76h-.07Z"/><path class="cls-1" d="M848.05,662.47c-11.83,0-22.38,.38-32.86-.31-2.21-.14-5.55-3.95-6.01-6.49-2.85-15.74-5.32-31.57-7.27-47.45-.82-6.69-3.16-9.62-10.23-9.33-11.21,.46-22.46,.34-33.69,.04-6.04-.16-8.6,2.28-9.35,8.18-1.99,15.57-4.58,31.07-6.54,46.64-.85,6.72-3.73,9.48-10.67,8.87-6.37-.56-12.85-.46-19.24-.03-7.52,.51-9.5-2.31-8.2-9.63,7.2-40.66,14.06-81.39,21.07-122.09,7.6-44.17,15.27-88.34,22.84-132.52,2.36-13.77,2.26-13.79,16.12-13.81,8.34,0,16.72,.44,25.02-.12,8.55-.58,12.45,2.14,13.95,11.24,9.78,59.12,20.17,118.13,30.35,177.18,4.73,27.47,9.44,54.95,14.12,82.44,.31,1.82,.32,3.69,.6,7.19Zm-71.06-220.09c-1.05,.02-2.09,.04-3.14,.06-.79,2.83-1.89,5.62-2.32,8.5-4.34,28.78-8.64,57.57-12.8,86.38-3.81,26.38-3.73,26.39,23.27,26.19,12.87-.1,13.42-.9,11.5-14.04-4.5-30.67-8.83-61.37-13.35-92.03-.75-5.06-2.09-10.04-3.15-15.06Z"/><path class="cls-1" d="M869.15,601.55q-.02-14.97,15-16.58,19.89-2.13,21.97,18.07c1.73,16.78,8.3,24.66,22.37,26.84,12.92,2,24.12-4.6,27.26-17.25,4.26-17.19,3.16-34.12-8.29-48.45-8.17-10.22-17.61-19.47-26.92-28.72-16.39-16.29-33.63-31.9-42.77-53.84-8.43-20.24-8.99-41.18-3.63-62.21,4.66-18.26,16.42-30.05,34.6-35.34,17.85-5.2,35.56-4.92,52.83,2.09,20.9,8.49,36.14,37.01,31.39,58.59-.49,2.23-3.13,4.35-5.29,5.72-1.41,.89-3.75,.29-5.67,.41-7.31,.45-16.15,3.57-21.42,.52-4.13-2.39-3.64-12.47-5.58-19.03-3.02-10.22-11.66-16.16-22.58-15.93-11.68,.24-19.7,6.49-22.2,17.5-3.89,17.1,1.29,31.94,12.8,44.34,12.87,13.85,26.76,26.75,39.92,40.34,15.17,15.67,28.28,33.03,30.94,55.28,1.77,14.83,2.45,30.31,.24,44.99-5.74,38.01-36.72,49.89-68.12,46.99-37.96-3.5-56.78-26.06-56.84-64.31Z"/><path class="cls-1" d="M805.57,222.32c.33-19.16-2.44-14.4,16.39-18.06,.31-.06,.64-.04,.96-.07q17.49-1.45,19.29,15.99c1.9,18.38,7,25.63,20.27,28.81,14.24,3.42,26.7-3.84,29.91-18.2,3.8-16.95,2.38-33.49-8.87-47.45-8-9.93-17.36-18.79-26.17-28.06-9.48-9.98-19.52-19.48-28.46-29.93-21.24-24.8-26.03-53.94-18.89-84.83,5.76-24.95,23.96-36.94,48.55-39.71,40.49-4.55,70.6,15.8,71.26,58.93,.11,7.46-2.76,10.35-10.16,10.33-7.63-.03-16.78,3.63-22.43,.52-4.38-2.41-4.22-12.79-6.39-19.53-3.22-10-11.31-15.56-21.88-15.41-10.56,.15-18.78,5.88-21.69,15.82-3.81,12.99-2.7,25.98,5.4,36.76,8.6,11.45,18.83,21.71,28.63,32.23,8.73,9.37,18.08,18.17,26.75,27.6,24.62,26.75,27.82,59.18,22.23,92.82-5.68,34.21-36.25,47.54-69.51,44.02-36.8-3.89-55.11-25.76-55.19-62.58Z"/><path class="cls-1" d="M566.98,522.98c0-42.31,.2-84.63-.17-126.94-.07-8.6,2.13-12.04,11.28-11.67,21.13,.87,42.52-.96,63.4,1.62,32.44,4.01,49.85,22.67,52.52,55.25,1.48,18.06,.97,36.61-1.38,54.59-3.84,29.36-26.68,48.29-56.37,49.28-5.77,.19-11.55,.06-17.32,.08-13.73,.04-14.19,.4-14.22,13.84-.06,28.85-.04,57.7-.02,86.55,.02,19.81,.32,16.95-17.3,16.85-23.44-.14-20.29,3.67-20.38-20.21-.15-39.75-.04-79.5-.04-119.24Zm37.79-57.86h-.07c0,7.37,0,14.74,0,22.12q0,24,24.09,22.27c14.59-1.05,24.57-8.9,26.28-23.35,1.53-12.92,2-26.25,.67-39.17-1.81-17.59-10.92-25.14-28.54-26.65-4.14-.35-8.35,.08-12.5-.26-7.04-.58-10.02,2.61-9.96,9.46,.1,11.86,.03,23.72,.03,35.58Z"/><path class="cls-1" d="M1012.89,603.9c0-2.88,.18-5.78-.04-8.65-.46-5.99,2.26-8.87,8.17-9.37,7.34-.63,14.65-1.94,21.99-2.03,1.94-.02,5.3,3.12,5.64,5.19,.92,5.64,.17,11.53,.79,17.25,1.62,14.97,11.99,24.27,26.26,23.99,14.25-.28,23.12-10.12,24.7-25.44,2.16-21.07-4.56-38.31-19.69-52.82-12.49-11.99-24.62-24.34-36.9-36.55-24.9-24.75-32.95-54.85-28.25-88.99,3.37-24.5,20.41-40.48,48.02-45.04,42.32-6.99,73.43,18.41,72.62,58.99-.14,7.18-2.4,10.59-10.03,10.54-7.63-.05-16.76,3.67-22.41,.58-4.22-2.31-3.69-12.9-5.74-19.66-3.11-10.27-12.66-16.27-23.81-15.41-11.85,.91-19.83,8.29-21.18,19.84-1.66,14.26,.5,27.74,10.5,38.66,10.59,11.57,21.81,22.57,32.71,33.86,6.46,6.69,12.94,13.35,19.22,20.2,24.73,27.01,26.69,60.02,21.15,93.19-5.57,33.37-34.75,46.4-67.03,43.7-37.31-3.12-56.36-25-56.68-62.04Z"/><path class="cls-1" d="M.13,523.04c0-26.6-.06-53.2,.02-79.79,.07-23.62,7.1-44.32,29.65-55.15,24.71-11.86,50.01-10.92,73.42,4.06,16.19,10.36,21.21,27.41,23.18,45.51,.21,1.91,.17,3.84,.19,5.76,.41,28.46,.41,28.37-28.35,28.59-5.28,.04-7.54-1.73-7.66-7.14-.2-8.63-.31-17.34-1.63-25.84-2.39-15.39-12.25-23.46-26.21-22.58-14.38,.91-24.31,10.51-24.53,25.76-.52,36.2-.34,72.42-.36,108.63-.01,17.62-.34,35.27,.34,52.87,.76,19.53,16.98,30.95,34.39,25,9.93-3.39,15.09-10.95,16.28-20.75,1.27-10.45,1.57-21.06,1.68-31.61,.07-6.38,2.01-9.39,8.87-9.21,33.17,.88,26.5-2.94,27.19,26.01,.49,20.6-1.23,40.95-17.47,55.97-21.61,19.98-47.32,21.41-73.6,11.95-24.88-8.95-34.58-29.47-35.18-54.41-.67-27.86-.15-55.76-.15-83.63h-.06Z"/><path class="cls-1" d="M52.05,142.73c0-27.25-.2-54.51,.06-81.76,.27-27.62,12.81-47.42,34.73-55.83,27.06-10.38,58.51-4.62,76.05,13.73,10.1,10.57,13.72,23.78,15.15,37.64,.89,8.57,.64,17.32,.13,25.94-.14,2.34-2.84,6.13-4.83,6.46-7.87,1.31-15.95,2.07-23.91,1.79-2.36-.08-6.14-4.01-6.55-6.61-1.3-8.18-.77-16.64-1.94-24.86-2.14-15.14-12.17-23.99-25.66-23.55-14.66,.47-24.53,10.27-25.26,26.15-.6,13.12-.33,26.29-.33,39.43,0,39.76,.01,79.52,.15,119.28,.04,11.57,3.29,21.8,14.89,26.87,16.69,7.31,33.15-1.49,35.96-19.82,1.65-10.7,1.6-21.7,1.76-32.58,.09-6.14,2.28-8.31,8.53-8.46,27.47-.66,27.32-.83,27.51,26.28,.14,20.98-1.47,41.61-18.52,56.52-22.13,19.35-47.92,20.36-74.03,10.45-23.89-9.07-33.24-29.12-33.73-53.38-.56-27.88-.13-55.79-.13-83.69h-.04Z"/><path class="cls-1" d="M963.35,142.79c0-42.65,.19-85.3-.16-127.94-.07-8.24,2.05-11.21,10.75-11.07,31.44,.48,62.9,.38,94.35,.05,7.47-.08,10.3,2.22,10.12,9.85-.74,31.01,4.04,24.97-25.09,25.54-13.79,.27-27.61,.3-41.4-.04-7.22-.18-10.72,2.27-10.66,9.85,.18,21.8,.14,43.61,.02,65.41-.03,6.55,2.81,9.05,9.37,8.92,14.44-.3,28.89,.15,43.32-.18,6.57-.15,9.32,2.15,9.21,8.85-.52,32.43,3.89,25.83-25.14,26.52-9.3,.22-18.62,.22-27.92,.02-6.19-.13-8.76,2.8-8.76,8.69,.02,23.41,.04,46.82-.02,70.22-.02,6.59,3.21,8.94,9.59,8.87,19.25-.2,38.51,.16,57.77-.16,6.95-.12,9.85,2.09,9.69,9.32-.7,32.04,4.22,25.55-25.48,26.01-26.31,.4-52.64-.25-78.94,.27-8.67,.17-10.85-2.78-10.78-11.05,.36-42.65,.16-85.3,.16-127.94Z"/><g><path class="cls-1" d="M321.06,286.65c-75.49,0-141.72-60.62-140.37-145.45,2.14-36.34,15.3-67.94,41.14-93.78,27.34-27.35,60.83-40.45,99.27-41.44,79.7,1.15,140.21,63.99,140.16,141-.05,76.5-62.06,139.41-140.21,139.67ZM213.88,87.24c-1.87-1.07-3.59-1.97-5.22-3.02-1.13-.73-1.7-.57-2.35,.64-3.81,7.13-6.96,14.54-9.36,22.26-1.17,3.76-1.65,3.07,2.35,4.21,.28,.08,.57,.14,.85,.22,3.87,1.19,3.37,.2,2.4,4.27-.21,.88-.53,1.22-1.51,.9-1.66-.54-3.37-.9-5.05-1.39-.87-.26-1.4-.13-1.55,.87-1.04,6.66-2.08,13.31-3.14,19.96-.18,1.15,.31,1.75,1.33,2.24,4.85,2.36,9.67,4.79,14.49,7.2,.44,.22,.85,.5,1.46,.85-.68,.37-1.1,.6-1.53,.82-4.64,2.33-9.26,4.73-13.95,6.96-1.46,.7-2.04,1.52-1.78,3.13,1.03,6.27,2.02,12.54,2.98,18.82,.21,1.35,.81,1.64,2.09,1.24,1.88-.59,3.81-1,5.81-1.51,.35,1.26,.62,2.33,.96,3.39,.27,.86-.07,1.26-.88,1.46-1.56,.38-3.09,.86-4.66,1.18-1.26,.26-1.64,.73-1.23,2.08,2.54,8.29,5.81,16.27,9.87,23.93,.65,1.23,1.21,1.5,2.42,.71,1.65-1.07,3.41-1.96,5.22-2.99,.81,1.43,1.53,2.68,2.33,4.08-1.88,1.08-3.62,2.13-5.41,3.09-.95,.51-1.23,.97-.58,2.02,4.68,7.48,10.03,14.44,16.05,20.89,.85,.91,1.4,.87,2.22,0,1.38-1.48,2.85-2.87,4.32-4.32,1.18,1.17,2.2,2.19,3.38,3.38-1.5,1.46-2.92,2.91-4.42,4.28-.83,.76-.9,1.3-.03,2.11,6.45,5.94,13.29,11.36,20.74,16.01,1.21,.75,1.74,.5,2.34-.65,.92-1.74,1.98-3.41,3.02-5.19l4.06,2.31c-1.1,1.93-2.04,3.73-3.13,5.44-.68,1.07-.4,1.55,.65,2.11,6.97,3.7,14.16,6.86,21.7,9.22q3.99,1.25,5.04-2.72c.02-.09,.05-.19,.07-.28,.95-3.49,.94-3.47,4.41-2.37,.77,.24,1.01,.53,.77,1.35-.51,1.67-.85,3.39-1.38,5.05-.34,1.07-.02,1.55,1.03,1.72,6.57,1.02,13.14,2.03,19.7,3.07,1.24,.2,1.82-.37,2.34-1.42,2.35-4.8,4.76-9.57,7.16-14.35,.23-.45,.5-.88,.87-1.54,.39,.72,.65,1.17,.88,1.63,2.35,4.69,4.74,9.36,7.01,14.09,.63,1.32,1.4,1.79,2.81,1.57,6.32-1.01,12.65-2,18.99-2.95,1.44-.22,1.7-.89,1.28-2.21-.59-1.83-1.02-3.72-1.54-5.7,1.26-.34,2.34-.59,3.39-.92,.86-.28,1.26,.03,1.47,.85,.43,1.69,.93,3.37,1.33,5.07,.23,1.01,.71,1.2,1.67,.92,8.51-2.53,16.65-5.93,24.47-10.12,1.04-.56,1.14-1.09,.55-2.05-1.06-1.73-2.02-3.52-3.11-5.44,1.4-.79,2.68-1.52,4.06-2.3,1.07,1.82,2.11,3.46,3.01,5.17,.61,1.16,1.15,1.39,2.34,.64,7.43-4.67,14.3-10.06,20.73-16.02,.78-.73,.87-1.24,.06-2-1.52-1.41-2.98-2.89-4.21-4.1,1.14-1.32,2.11-2.44,3.23-3.73,1.48,1.54,2.89,2.95,4.22,4.42,.74,.81,1.28,.93,2.11,.04,5.98-6.42,11.32-13.32,16-20.75,.75-1.19,.53-1.74-.64-2.34-1.75-.9-3.43-1.94-5.24-2.99,.87-1.47,1.61-2.74,2.39-4.07,1.97,1.13,3.76,2.11,5.5,3.16,.85,.51,1.36,.42,1.85-.49,4.23-7.86,7.6-16.06,10.2-24.6,.33-1.09-.06-1.5-1.04-1.73-1.61-.38-3.21-.77-4.78-1.27-.43-.14-1.1-.78-1.04-1.02,.33-1.26,.85-2.47,1.37-3.67,.03-.06,.63,.1,.96,.19,1.55,.41,3.11,.78,4.64,1.27,1.09,.35,1.66,.09,1.83-1.06,1.01-6.57,2.02-13.14,3.06-19.71,.18-1.16-.28-1.75-1.3-2.25-4.84-2.37-9.65-4.82-14.47-7.24-.45-.23-.88-.49-1.48-.83,.54-.33,.85-.55,1.19-.72,4.96-2.47,9.91-4.95,14.88-7.39,.91-.45,1.33-.99,1.19-2.04-.17-1.25-.14-2.53-.35-3.77-.89-5.41-1.84-10.81-2.76-16.22-.17-1.01-.67-1.28-1.64-.95-.96,.33-1.97,.53-2.95,.8-3.39,.92-3.35,.91-4.15-2.51-.23-.99,.13-1.31,.98-1.52,1.65-.42,3.28-.92,4.93-1.32,.97-.24,1.23-.69,.93-1.67-2.59-8.43-5.88-16.57-10.06-24.34-.57-1.05-1.08-1.29-2.14-.62-1.71,1.08-3.51,2.02-5.38,3.09-.82-1.43-1.55-2.71-2.34-4.09,1.96-1.13,3.7-2.19,5.49-3.15,.95-.51,1.07-1.01,.49-1.94-4.64-7.51-10.06-14.41-16.04-20.9-.81-.88-1.38-.96-2.21-.04-1.36,1.51-2.82,2.92-3.99,4.13-1.33-1.12-2.46-2.08-3.85-3.24,1.62-1.53,3.08-2.95,4.59-4.31,.78-.71,.84-1.24,.01-2-6.46-5.92-13.33-11.32-20.76-15.99-1.16-.73-1.73-.59-2.35,.6-.91,1.75-1.96,3.42-3.02,5.24l-4.07-2.41c1.15-1.98,2.17-3.8,3.26-5.58,.5-.82,.35-1.27-.49-1.72-7.91-4.22-16.13-7.68-24.72-10.24-1.01-.3-1.4,.02-1.62,.98-.38,1.65-.86,3.29-1.29,4.93-.17,.65-.38,1.25-1.25,1.02-1.16-.31-2.31-.64-3.63-1,.57-2.18,1.09-4.24,1.66-6.28,.25-.91,0-1.32-.94-1.54-6.59-1.5-13.23-2.61-19.97-3.12-1.1-.08-1.66,.31-2.13,1.27-2.37,4.84-4.81,9.66-7.22,14.48-.23,.46-.49,.9-.86,1.59-.38-.71-.63-1.16-.86-1.63-2.35-4.69-4.75-9.36-7.01-14.1-.63-1.31-1.4-1.82-2.81-1.59-6.46,1.04-12.93,2.05-19.39,3.05-1.11,.17-1.28,.71-.98,1.73,.59,1.98,1.06,4.01,1.6,6.12-1.22,.34-2.3,.6-3.35,.93-.84,.26-1.27,0-1.48-.84-.4-1.6-.9-3.18-1.25-4.8-.27-1.25-.79-1.5-2.04-1.13-8.35,2.52-16.36,5.86-24.06,9.95-1.12,.6-1.37,1.1-.66,2.21,1.09,1.69,2.03,3.48,3.08,5.31l-4.09,2.37c-1.04-1.79-2.07-3.42-2.95-5.14-.63-1.22-1.19-1.45-2.44-.67-7.38,4.66-14.23,9.99-20.65,15.89-.85,.78-.9,1.31-.05,2.1,1.51,1.42,2.93,2.93,4.12,4.14l-3.16,3.72c-1.52-1.59-2.96-3.04-4.33-4.55-.74-.82-1.26-.75-2,.04-5.99,6.47-11.43,13.36-16.07,20.87-.64,1.04-.56,1.57,.54,2.14,1.79,.94,3.51,2.01,5.37,3.09l-2.34,4.09Z"/><path class="cls-1" d="M283.95,108.91c3.47,2.32,6.97,4.58,10.38,6.98,1.2,.84,1.97,.8,3.15-.11,3.79-2.94,8-5.18,12.66-6.42,1.37-.36,1.97-1.03,2.28-2.39,2.69-11.74,5.44-23.47,8.18-35.2,.11-.49,.27-.97,.72-1.46,.69,2.9,1.38,5.8,2.06,8.71,2.18,9.36,4.36,18.71,6.5,28.08,.28,1.22,.82,1.84,2.07,2.26,2.61,.88,5.17,1.96,7.67,3.14,1.07,.5,1.76,.51,2.73-.23,17.76-13.66,35.54-27.28,53.32-40.91,.38-.29,.78-.57,1.35-.71-.22,.33-.41,.68-.65,.99-13.65,17.82-27.3,35.65-40.99,53.44-.82,1.07-.78,1.81-.23,2.98,1.19,2.49,2.26,5.05,3.14,7.66,.4,1.2,.99,1.71,2.15,1.98,11.88,2.73,23.76,5.49,35.63,8.25,.45,.1,.88,.26,1.32,.62-3.85,.91-7.7,1.82-11.55,2.72-8.5,1.99-17.01,3.99-25.52,5.94-1.13,.26-1.68,.78-2,1.93-1.34,4.88-3.64,9.31-6.78,13.28-.68,.86-.74,1.51-.11,2.43,2.26,3.28,4.44,6.62,6.64,9.94,.26,.39,.49,.79,.54,1.39-1.68-1.12-3.35-2.24-5.03-3.36-2.1-1.4-4.21-2.79-6.29-4.23-.71-.49-1.26-.48-1.94,.07-4.15,3.32-8.78,5.72-13.93,7.05-1.18,.31-1.31,1.16-1.52,2.04-2.75,11.77-5.49,23.53-8.23,35.3-.12,.5-.26,1-.66,1.51-.14-.49-.3-.97-.42-1.46-2.74-11.73-5.49-23.46-8.17-35.21-.31-1.35-.92-1.95-2.27-2.39-2.57-.83-5.07-1.93-7.52-3.1-1.07-.51-1.75-.55-2.72,.19-17.72,13.63-35.46,27.22-53.2,40.82-.42,.32-.85,.63-1.51,.77,.28-.39,.56-.79,.85-1.18,13.63-17.78,27.25-35.57,40.91-53.32,.73-.95,.78-1.63,.26-2.72-1.18-2.44-2.26-4.95-3.12-7.52-.46-1.39-1.13-2.02-2.53-2.34-11.82-2.71-23.63-5.48-35.44-8.24-.42-.1-.83-.23-1.28-.6,2.51-.6,5.02-1.2,7.53-1.78,9.84-2.28,19.68-4.57,29.53-6.82,1.13-.26,1.72-.77,2.03-1.93,1.29-4.85,3.56-9.25,6.69-13.16,.82-1.03,.8-1.76,.07-2.8-2.14-3.07-4.17-6.21-6.25-9.33-.28-.43-.55-.87-.83-1.3l.32-.25Zm67.11,22.05c-.33,.38-.66,.71-.95,1.08-3.35,4.34-6.73,8.67-10.03,13.06-.52,.69-.9,1.62-.98,2.48-.8,9.12-7.81,16.08-16.59,16.71-.94,.07-1.96,.56-2.74,1.13-4.39,3.29-8.72,6.66-13.07,10.01-.37,.28-.7,.61-1.07,.95,8.64,5.93,27.17,6.46,39.48-5.85,12.64-12.65,11.81-30.63,5.94-39.58Zm-14.33-14.56c-11.8-6.63-30.09-5.51-41.71,8.18-10.46,12.32-9.29,28.98-3.82,37.34,.37-.42,.74-.78,1.05-1.19,3.34-4.35,6.71-8.7,9.99-13.09,.51-.69,.86-1.63,.95-2.49,.93-9.18,7.52-15.72,16.7-16.59,.86-.08,1.79-.48,2.48-1,4.35-3.27,8.65-6.6,12.96-9.93,.44-.34,.85-.74,1.4-1.22Zm-28.79,29.93c.02,7.42,5.84,13.3,13.18,13.32,7.22,.02,13.24-5.97,13.23-13.15-.01-7.39-5.88-13.27-13.22-13.27-7.32,0-13.21,5.85-13.19,13.1Z"/><path class="cls-1" d="M328.66,146.35c.02,4.28-3.28,7.6-7.54,7.6-4.18,0-7.51-3.31-7.53-7.48-.02-4.29,3.26-7.58,7.55-7.58,4.22,0,7.5,3.26,7.51,7.46Z"/></g></g></svg>