<?xml version="1.0" encoding="iso-8859-1"?>
<!-- Generator: Adobe Illustrator 24.1.2, SVG Export Plug-In . SVG Version: 6.00 Build 0)  -->
<svg version="1.1" baseProfile="basic" id="Layer_1"
	 xmlns="http://www.w3.org/2000/svg" xmlns:xlink="http://www.w3.org/1999/xlink" x="0px" y="0px" viewBox="0 0 48 48"
	 xml:space="preserve">
<linearGradient id="SVGID_1_" gradientUnits="userSpaceOnUse" x1="32.7489" y1="20.8489" x2="56.0901" y2="44.1901">
	<stop  offset="0" style="stop-color:#262626;stop-opacity:0"/>
	<stop  offset="1" style="stop-color:#262626;stop-opacity:0.8"/>
</linearGradient>
<path style="fill:url(#SVGID_1_);" d="M45,16.2l-10,7.5V40h7c1.657,0,3-1.343,3-3V16.2z"/>
<linearGradient id="SVGID_2_" gradientUnits="userSpaceOnUse" x1="-5.3991" y1="17.5723" x2="26.7463" y2="49.7176">
	<stop  offset="0" style="stop-color:#262626;stop-opacity:0"/>
	<stop  offset="1" style="stop-color:#262626;stop-opacity:0.8"/>
</linearGradient>
<path style="fill:url(#SVGID_2_);" d="M3,16.2l10,7.5V40H6c-1.657,0-3-1.343-3-3V16.2z"/>
<linearGradient id="SVGID_3_" gradientUnits="userSpaceOnUse" x1="11.7889" y1="5.2389" x2="44.5999" y2="38.0499">
	<stop  offset="0" style="stop-color:#262626;stop-opacity:0"/>
	<stop  offset="1" style="stop-color:#262626;stop-opacity:0.8"/>
</linearGradient>
<polygon style="fill:url(#SVGID_3_);" points="35,11.2 24,19.45 13,11.2 13,23.7 24,31.95 35,23.7 "/>
<linearGradient id="SVGID_4_" gradientUnits="userSpaceOnUse" x1="1.499" y1="7.199" x2="23.5466" y2="29.2466">
	<stop  offset="0" style="stop-color:#262626;stop-opacity:0"/>
	<stop  offset="1" style="stop-color:#262626;stop-opacity:0.8"/>
</linearGradient>
<path style="fill:url(#SVGID_4_);" d="M3,12.298V16.2l10,7.5V11.2L9.876,8.859C9.132,8.301,8.228,8,7.298,8l0,0
	C4.924,8,3,9.924,3,12.298z"/>
<linearGradient id="SVGID_5_" gradientUnits="userSpaceOnUse" x1="32.9864" y1="10.0952" x2="47.2521" y2="24.3609">
	<stop  offset="0" style="stop-color:#262626;stop-opacity:0"/>
	<stop  offset="1" style="stop-color:#262626;stop-opacity:0.8"/>
</linearGradient>
<path style="fill:url(#SVGID_5_);" d="M45,12.298V16.2l-10,7.5V11.2l3.124-2.341C38.868,8.301,39.772,8,40.702,8l0,0
	C43.076,8,45,9.924,45,12.298z"/>
</svg>