<?xml version="1.0" encoding="iso-8859-1"?>
<!-- Generator: Adobe Illustrator 24.1.2, SVG Export Plug-In . SVG Version: 6.00 Build 0)  -->
<svg version="1.1" xmlns="http://www.w3.org/2000/svg" xmlns:xlink="http://www.w3.org/1999/xlink" x="0px" y="0px"
	 viewBox="0 0 48 48" style="enable-background:new 0 0 48 48;" xml:space="preserve">
<g id="Layer_10" style="display:none;">
	<g style="display:inline;opacity:0.05;">
		<circle style="fill:#FFFFFF;" cx="24" cy="24" r="19.5"/>
		<path d="M24,5c10.477,0,19,8.523,19,19s-8.523,19-19,19S5,34.477,5,24S13.523,5,24,5 M24,4C12.954,4,4,12.954,4,24s8.954,20,20,20
			s20-8.954,20-20S35.046,4,24,4L24,4z"/>
	</g>
	<g style="display:inline;opacity:0.05;">
		<rect x="6.5" y="6.5" style="fill:#FFFFFF;" width="35" height="35"/>
		<path d="M41,7v34H7V7H41 M42,6H6v36h36V6L42,6z"/>
	</g>
</g>
<g id="filled">
</g>
<g id="outlined">
</g>
<g id="rounded">
</g>
<g id="two_x5F_tone">
</g>
<g id="sharp">
</g>
<g id="win10">
</g>
<g id="ios_x5F_out">
</g>
<g id="ios_x5F_filled">
</g>
<g id="color">
	<path style="fill:#4CAF50;" d="M45,16.2l-5,2.75l-5,4.75L35,40h7c1.657,0,3-1.343,3-3V16.2z"/>
	<path style="fill:#1E88E5;" d="M3,16.2l3.614,1.71L13,23.7V40H6c-1.657,0-3-1.343-3-3V16.2z"/>
	<polygon style="fill:#E53935;" points="35,11.2 24,19.45 13,11.2 12,17 13,23.7 24,31.95 35,23.7 36,17 	"/>
	<path style="fill:#C62828;" d="M3,12.298V16.2l10,7.5V11.2L9.876,8.859C9.132,8.301,8.228,8,7.298,8h0C4.924,8,3,9.924,3,12.298z"
		/>
	<path style="fill:#FBC02D;" d="M45,12.298V16.2l-10,7.5V11.2l3.124-2.341C38.868,8.301,39.772,8,40.702,8h0
		C43.076,8,45,9.924,45,12.298z"/>
</g>
<g id="fluent">
</g>
</svg>