 <!DOCTYPE svg PUBLIC "-//W3C//DTD SVG 1.1//EN" "http://www.w3.org/Graphics/SVG/1.1/DTD/svg11.dtd">

<svg xmlns="http://www.w3.org/2000/svg" width="865.76" height="682.89" viewBox="0 0 865.76 682.89">

<defs>

<style xmlns="http://www.w3.org/1999/xhtml">*, ::after, ::before { box-sizing: border-box; }
img, svg { vertical-align: middle; }
</style>

<style xmlns="http://www.w3.org/1999/xhtml">*, body, html { -webkit-font-smoothing: antialiased; }
img, svg { max-width: 100%; }
</style>

</defs>

<path d="M819,285.37,677.84,658H159.68a41.27,41.27,0,0,1-40.33-32.55l-83-383.51A45.38,45.38,0,0,1,64.8,189.83L332.87,89.16l9.46-3.55,10.81-4.07,127-47.7,4-1.51,29-10.89a42.54,42.54,0,0,1,41.68,6.73L629.5,88.42l8.37,6.75.38.31,21.62,17.46,143.9,116.18A49.67,49.67,0,0,1,819,285.37Z" fill="#0071f2" data-primary="true"/>

<path d="M819,285.37,677.84,658H159.68a41.27,41.27,0,0,1-40.33-32.55l-83-383.51A45.38,45.38,0,0,1,64.8,189.83L332.87,89.16l9.46-3.55,10.81-4.07,127-47.7,4-1.51,29-10.89a42.54,42.54,0,0,1,41.68,6.73L629.5,88.42l8.37,6.75.38.31,21.62,17.46,143.9,116.18A49.67,49.67,0,0,1,819,285.37Z" fill="#fff" opacity="0.7"/>

<line x1="744.3" y1="547.98" x2="632.4" y2="547.98" fill="none" stroke="red" stroke-miterlimit="10" stroke-width="0.25"/>

<rect x="632.4" y="505.41" width="111.9" height="108.25" fill="#0071f2" data-primary="true"/>

<rect x="632.4" y="505.41" width="111.9" height="108.25" fill="#fff" opacity="0.6"/>

<g opacity="0.5">

<rect x="632.4" y="532.78" width="111.9" height="1.22" fill="#fff"/>

<rect x="632.4" y="559.54" width="111.9" height="1.22" fill="#fff"/>

<rect x="632.4" y="575.35" width="111.9" height="1.22" fill="#fff"/>

<rect x="632.4" y="588.73" width="111.9" height="1.22" fill="#fff"/>

<rect x="632.4" y="602.11" width="111.9" height="1.22" fill="#fff"/>

</g>

<path d="M683.66,543.12s12,13.38,12,28l47.09-20.62Z" fill="#0071f2" data-primary="true"/>

<polygon points="586.18 493.25 610.48 630.83 616.59 631.91 594.83 476.07 586.18 493.25" fill="#5d6166"/>

<path d="M581.33,288.91s62-7.3,62,28c0,0,10.94,175.15-45.94,185.13l-69.67,7-9.67-31.6Z" fill="#3f4347"/>

<path d="M536.59,623.73l-.53.69a31.82,31.82,0,0,1-16.59,11.28c-18.6,5.12-37.89-.14-37.89-.14-10.95-2.43-9.13-9.31-9.13-9.31h0a3.86,3.86,0,0,0,1.24,2.3,6.08,6.08,0,0,0,3.32,1.61c7.75,1.3,42.27,6.31,52-5.54l7.45-6.3h0A4.28,4.28,0,0,1,536.59,623.73Z" fill="#2f2e41" data-secondary="true"/>

<path d="M407.42,623.68s-1.25,7,7.26,7a98.4,98.4,0,0,0,35.62-4.76l24.12-4.34a5.6,5.6,0,0,0,4.48-4.3,10,10,0,0,0,.31-2.21l-8.58-3.85Z" fill="#2f2e41" data-secondary="true"/>

<path d="M468.18,436.12s-66.88,10.91-62,35.24c0,0,.41,13.65,13,44.53l33.25,72S474.12,590,482.11,583c0,0-17.11-75.8-27.68-93.7,0,0,22.11-8.57,36.18-16.28l54.46-31.76-6.33-19.73-24.15-5.64Z" fill="#2f2e41" data-secondary="true"/>

<path d="M468.18,436.12s-66.88,10.91-62,35.24c0,0,.41,13.65,13,44.53l33.25,72S474.12,590,482.11,583c0,0-17.11-75.8-27.68-93.7,0,0,22.11-8.57,36.18-16.28l54.46-31.76-6.33-19.73-24.15-5.64Z" opacity="0.2"/>

<path d="M536.46,618.31l-7.45,6.3c-10.94,13.38-53.51,5.27-53.51,5.27-1.95-1.17-2.86-2.4-3-3.64-.61-4.83,10.47-9.84,18.05-12.67a35.2,35.2,0,0,1,10.58-2.24c9.66-.47,9.73-7,9.73-7l21.81-6.45C535.09,605.15,536.46,618.31,536.46,618.31Z" fill="#0071f2" data-primary="true"/>

<path d="M593.33,404.46h0c-5.87,9.5-27,17-27,17-11.38,4.86-27.57,0-27.57,0L495,381.66l-3.93-3.57c-4.33-3.8-12.54-21.62-14.91-26.89a1.07,1.07,0,0,0-1.76-.28c-15.33,16.23-28.09,24.35-28.09,24.35l-16.17-1.75H430l-10.89-1.18c5.68-5.37,5.27-27.48,5.27-27.48,13.38-10.95,21.89-40.14,21.89-40.14C447.52,291.34,458,288.8,458,288.8l54-20.57,13.07-4.43c35-2,52.76,20.38,52.76,20.38,20.82,24.44,12,69.19,12,69.19,0,12.17,4.86,45,4.86,45A8.25,8.25,0,0,1,593.33,404.46Z" fill="#0071f2" data-primary="true"/>

<path d="M501,286.48c-8.52,14.59-7.3,32.84-7.3,32.84-2.43-4.87-3.65-14.6-3.65-14.6q-.42-3.81-.83-6.64a33.86,33.86,0,0,0-6.45-15.63l-2.45-3.27L486.93,249l8,2.17,17,17Z" fill="#f9b499"/>

<path d="M480.36,279.18l7.3,9.73s4.8-7.65,3-25.11Z" fill="#f7a48b"/>

<path d="M530.23,297.42s-31.62-25.54-36.49,21.9c0,0-1.22-18.25,7.3-32.84L512,268.23l-3.29-3.29s16.43-9.26,16.73,2.8a36.72,36.72,0,0,0,.67,5.73l3.28,18.95Z" fill="#0071f2" data-primary="true"/>

<path d="M530.23,297.42s-31.62-25.54-36.49,21.9c0,0-1.22-18.25,7.3-32.84L512,268.23l-3.29-3.29s16.43-9.26,16.73,2.8a36.72,36.72,0,0,0,.67,5.73l3.28,18.95Z" fill="#fff" opacity="0.3"/>

<path d="M530.23,297.42s-31.62-25.54-36.49,21.9c0,0,1.22-35,18.24-33.32,0,0,10.44,1.42,17.39,6.42Z" fill="#fff" opacity="0.3"/>

<path d="M490.61,308.11v0c-4.33-8.67-6.6-9.5-6.6-9.5-6.08-3.65-10.41,13-10.41,13a46.69,46.69,0,0,1,0-22.77,50.84,50.84,0,0,0,9.76-5.73l4.3,5.73C488.87,293.77,490.49,307.18,490.61,308.11Z" fill="#0071f2" data-primary="true"/>

<path d="M490.61,308.11v0c-4.33-8.67-6.6-9.5-6.6-9.5-6.08-3.65-10.41,13-10.41,13a46.69,46.69,0,0,1,0-22.77,50.84,50.84,0,0,0,9.76-5.73l4.3,5.73C488.87,293.77,490.49,307.18,490.61,308.11Z" fill="#fff" opacity="0.3"/>

<path d="M490.62,308.14h0c-4.33-8.67-6.6-9.5-6.6-9.5-6.08-3.65-10.41,13-10.41,13s-.4-11.61,5-17.09a4.5,4.5,0,0,1,6.89.57C487.05,297.31,488.87,301.19,490.62,308.14Z" fill="#fff" opacity="0.3"/>

<path d="M509.72,290.87S504,322.41,499.45,330h-5.77l-12.27-31.74s-1.83-.61-5.09,6a138.53,138.53,0,0,1,17.42,37.51L495,381.66,515.18,400l-10.49-57.61V330.26s16.73-26.59,18.7-37A19.34,19.34,0,0,0,509.72,290.87Z" fill="#2f2e41" data-secondary="true"/>

<path d="M499.45,330s12.88-20.58,15.14-39.34a18.41,18.41,0,0,0-4.87.22S505.17,317.54,499.45,330Z" opacity="0.2"/>

<path d="M493.68,330l-15.22-29.43s1.57-2.7,3-2.31Z" opacity="0.2"/>

<path d="M493.74,341.73a57.81,57.81,0,0,0,10.95,0l.51,3.52s-6.53-1.43-5.34,18.55l3.61,25.72L495,381.66Z" opacity="0.2"/>

<path d="M424.25,352l3.81,6.22s5.92-1.6-1.91-11.75c0,0,9.21,5.67,14.07,14.18,0,0,4.87-1.43,0-11.66,0,0-4.4-8-12.54-7.28l-3.27,3.13Z" opacity="0.2"/>

<path d="M495,381.66l-3.93-3.57c-4.33-3.79-12.54-21.62-14.91-26.89a1.08,1.08,0,0,0-1.77-.29c-15.32,16.24-28.08,24.36-28.08,24.36l-16.17-1.75c1.31,0,15.24-.34,27.94-14.32a46.32,46.32,0,0,0,9.26-16c2-5.58,5.48-12.38,9-2.87l18.47,34.92Z" opacity="0.2"/>

<path d="M525.36,366.75l8.52-13.38a54.81,54.81,0,0,1,6.28-8.12,16.31,16.31,0,0,0,4.67-13.77S540,282.83,549.69,278l-1.51,57.64s8.81.74,10,11.69c0,0-4.07-8.77-12.37-5.6,0,0,9.61,4,9.77,16.94,0,0-11.16-16.94-15.83-7.45C539.77,351.18,541.18,363.1,525.36,366.75Z" opacity="0.2"/>

<polygon points="257.2 400.04 511.95 429.81 572.26 390.47 391.57 369.19 257.2 400.04" fill="#e1e1e2"/>

<polygon points="287.36 302.63 362.76 298.21 386.7 404.46 306.51 398.38 287.36 302.63" fill="#0071f2" data-primary="true"/>

<polygon points="385.71 400.04 437.76 394.42 437.76 398.38 386.7 404.46 385.71 400.04" fill="#0071f2" data-primary="true"/>

<polygon points="385.71 400.04 437.76 394.42 437.76 398.38 386.7 404.46 385.71 400.04" opacity="0.2"/>

<polygon points="437.76 394.42 382.87 387.43 385.71 400.04 437.76 394.42" fill="#2f2e41" data-secondary="true"/>

<path d="M527.8,484.74c7.29,17,4.86,113.11,4.86,113.11-3.95,6.78-10.53,8-16.44,7.46a38.79,38.79,0,0,1-12.75-3.81L477.93,487.17C465.76,445.81,507,443.78,507,443.78c27.84-3.25,31.75-22.29,31.75-22.29s16.19,4.86,27.57,0c0,0,12.46-4.43,20.9-10.79a24.13,24.13,0,0,0,6.12-6.23l5,29.18C610.51,484.74,527.8,484.74,527.8,484.74Z" fill="#2f2e41" data-secondary="true"/>

<path d="M527.8,484.74c7.29,17,4.86,113.11,4.86,113.11-3.95,6.78-10.53,8-16.44,7.46,23-3.82,1.85-95,1.85-95-6.09-9.73-2.44-12.48-2.44-12.48a14.87,14.87,0,0,0,4.87-7c2.43-9.73-4.87-3.65-4.87-3.65,0-8.52,34.06-14.6,34.06-14.6,7.2-.6,17.07-4.75,25.22-8.81,15.31-7.61,23-25.32,17.42-41.5a74.32,74.32,0,0,0-5.12-11.56,24.13,24.13,0,0,0,6.12-6.23l5,29.18C610.51,484.74,527.8,484.74,527.8,484.74Z" opacity="0.2"/>

<path d="M452.39,587.89s.47,11.76-13.75,17.55c0,0-38.56,15.52-30,20.39,0,0,24.32,1.21,41.35-4.87,0,0,23.25-6.89,29.26-5.88V584.85S471.85,590.09,452.39,587.89Z" fill="#0071f2" data-primary="true"/>

<polygon points="250.31 618.31 280.16 411.76 296.34 411.76 260.26 618.31 250.31 618.31" fill="#e1e1e2"/>

<polygon points="485.23 433.65 519.47 635.7 527.74 635.7 499.86 438.18 485.23 433.65" fill="#e1e1e2"/>

<path d="M761.38,376.43l-42.62,92.49s-30.41-35.66-60.82-39.11c0,0,0,0,0,0,.54-.64,17.65-21.65,27.6-68.73a.81.81,0,0,0,0,.09C685.93,362.6,692.18,383.42,761.38,376.43Z" fill="#f1f2f2"/>

<path d="M703,401.87s-20.67,14.36-45,27.92c.54-.64,17.65-21.65,27.6-68.73a.81.81,0,0,0,0,.09C685.74,363,688.81,392.28,703,401.87Z" fill="#e6e7e8"/>

<path d="M293.05,234.17l-52.3,94.88c-18.25-19.46-47.44-47.44-47.44-47.44,20.68-9.73,55.95-65.68,55.95-65.68,7.07,36.51,41.5,19.42,43.68,18.31Z" fill="#f1f2f2"/>

<polygon points="293.05 234.17 240.75 329.05 249.26 259.72 292.94 234.24 293.05 234.17" fill="#e6e7e8"/>

<ellipse cx="458.01" cy="255.35" rx="28.97" ry="37.72" transform="translate(-59.15 342.04) rotate(-38.66)" fill="#f9b499"/>

<path d="M427,257.48s-7.43,1-7.43-6.28V239.56s-6.08-44.31,29.2-34.58c0,0-2.44-4.69,0-6.6,0,0,1.21-1.91,6.08,4.17,0,0-3.34-8.91,3.19-4.45,0,0,5.32,5.67,9,10.53,0,0,10.95-12.16,15.81-6.08,0,0,1.22,4.52-2.43,10.17,0,0,6.08-6.52,10.95-2.87,0,0,2.43,2.43-3.65,9.73,0,0,21.47,1,6.48,18.14,0,0-13.78,8.62-21.08-4.76,0,0-4.41,7.92-13.76-5.77,0,0-8.13,19.15-10.56,4.55,0,0-3.65,14.6-9.73,4.87,0,0-4.79-4.68-13.34,14.69A30.57,30.57,0,0,0,427,257.48Z" fill="#2f2e41" data-secondary="true"/>

<path d="M427.85,234.89l-8.2,4.2,0,12.13s-.5,4.19,3.38,5.75a9.41,9.41,0,0,0,4,.55c1.41-.12,1.4,4.06,1.4,4.06-.89,4.26-7.39,14.8-7.39,14.8l1.47,31.71a.25.25,0,0,1,0,.09l1.83,34.25c0,30.4-6.08,31.62-6.08,31.62-1.9,2-3.6,1.36-5.92,1.9a14.86,14.86,0,0,1-17.5-10.74c-7.52-27.64,7.69-95.79,7.69-95.79l1.29-28s0-7.29,3.68-9.72c0,0,14.63-13.33,20.71-13.32,0,0,8-.67.31,6.34,0,0,10.94-3.47,4.08,3C432.67,227.74,439.64,229.53,427.85,234.89Z" fill="#f9b499"/>

<path d="M402.52,269.45c6.88-1.65,13.23-7.12,13.3-14.56-.14-5.1-.08-10.22.05-15.33v-.41l.38-.05,3.17-.4c2.14-1.09,5.61-2.68,8.24-3.84-2.69,1.56-5.37,3.16-8.13,4.59l-3.14.57.4-.46c.11,4.08.13,8.17.14,12.25a19.35,19.35,0,0,1-.43,6.32c-1.5,6.36-7.79,10.5-14,11.32Z" fill="#f7a48b"/>

<ellipse cx="490.4" cy="242.31" rx="6.9" ry="10.57" transform="translate(-55.45 277.67) rotate(-30)" fill="#f9b499"/>

<path d="M422.6,308.07a66.09,66.09,0,0,0-12.53-31.71h11Z" fill="#f7a48b"/>

<path d="M257.2,400c.57-.45,0,11.72,0,11.72l255.19,29.46L512,429.81Z" fill="#c2c4c6"/>

<polygon points="512.39 441.22 511.95 429.81 573.5 389.76 573.5 399.5 512.39 441.22" fill="#9ea0a3"/>

<path d="M581.31,386.21s1.45,1.45-3.35,3.56c-4,1.75-12.35,4-29.49,6.17l-46.22,1.22s-14.17,6-25.93,1.19a11.08,11.08,0,0,0-6.43,1.69s-6.89,4.1-7.32,0c0,0-10.18,2-11.4-1.66,0,0-3.65,2.43-4.87-4.87,0,0-3,1.16-3.91-3.08a5.64,5.64,0,0,1,1.48-5.43l9.73-7.3s2.43-3.65,9.73-1.22l13,1.12a89.88,89.88,0,0,0,11.75.63c5.67-.06,12.26-.73,17.13-3,0,0,44.49-18.23,56.65-13.36C561.85,361.89,588.61,375.27,581.31,386.21Z" fill="#f9b499"/>

<path d="M581.31,386.21s1.45,1.45-3.35,3.56l-.46-.26c2.26-13.72-8.35-19.11-8.35-19.11-13.38-13.38-49.87,3.65-49.87,3.65-19.46,9.73-31.21,4.18-31.21,4.18,5.67-.06,12.26-.73,17.13-3,0,0,44.49-18.23,56.65-13.36C561.85,361.89,588.61,375.27,581.31,386.21Z" fill="#f7a48b"/>

<path d="M452.39,387.43a15,15,0,0,1-6.09,6.08,15.11,15.11,0,0,1,6.09-6.08Z" fill="#f7a48b"/>

<path d="M457.7,390.47a21.32,21.32,0,0,1-6.53,7.91,21.24,21.24,0,0,1,6.53-7.91Z" fill="#f7a48b"/>

<path d="M462.56,400a5.74,5.74,0,0,1,3.2-4.1,5.7,5.7,0,0,1-3.2,4.1Z" fill="#f7a48b"/>

<line x1="783.22" y1="585.69" x2="671.32" y2="585.69" fill="none" stroke="red" stroke-miterlimit="10" stroke-width="0.25"/>

<rect x="671.32" y="543.12" width="111.9" height="108.25" fill="#0071f2" data-primary="true"/>

<rect x="671.32" y="543.12" width="111.9" height="108.25" fill="#fff" opacity="0.5"/>

<g opacity="0.5">

<rect x="671.32" y="570.49" width="111.9" height="1.22" fill="#fff"/>

<rect x="671.32" y="597.24" width="111.9" height="1.22" fill="#fff"/>

<rect x="671.32" y="613.06" width="111.9" height="1.22" fill="#fff"/>

<rect x="671.32" y="626.44" width="111.9" height="1.22" fill="#fff"/>

<rect x="671.32" y="639.82" width="111.9" height="1.22" fill="#fff"/>

</g>

<path d="M722.58,580.82s12,13.38,12,28l47.09-20.62Z" fill="#0071f2" data-primary="true"/>

<rect x="601.99" y="550.42" width="111.9" height="108.25" fill="#e6e6e6"/>

<g opacity="0.08">

<rect x="601.99" y="577.78" width="111.9" height="1.22"/>

<rect x="601.99" y="604.54" width="111.9" height="1.22"/>

<rect x="601.99" y="620.35" width="111.9" height="1.22"/>

<rect x="601.99" y="633.73" width="111.9" height="1.22"/>

<rect x="601.99" y="647.11" width="111.9" height="1.22"/>

</g>

<path d="M707.81,585.69l-99.74,10.95,79.76,18.44S693.22,595.42,707.81,585.69Z" fill="#ccc"/>

<path d="M616.59,562.06s10.94,10.25,10.94,18.76c0,0,26.76-13.38,40.14-13.38Z" fill="#ccc"/>

<rect x="212.77" y="475" width="172.72" height="124.06" fill="#0071f2" data-primary="true"/>

<rect x="207.91" y="449.46" width="182.45" height="30.41" fill="#0071f2" data-primary="true"/>

<rect x="207.91" y="449.46" width="182.45" height="30.41" fill="#fff" opacity="0.3"/>

<line x1="392.79" y1="554.07" x2="280.88" y2="554.07" fill="none" stroke="red" stroke-miterlimit="10" stroke-width="0.25"/>

<rect x="280.88" y="511.49" width="111.9" height="108.25" fill="#0071f2" data-primary="true"/>

<rect x="280.88" y="511.49" width="111.9" height="108.25" fill="#fff" opacity="0.5"/>

<g opacity="0.5">

<rect x="280.88" y="538.86" width="111.9" height="1.22" fill="#fff"/>

<rect x="280.88" y="565.62" width="111.9" height="1.22" fill="#fff"/>

<rect x="280.88" y="581.43" width="111.9" height="1.22" fill="#fff"/>

<rect x="280.88" y="594.81" width="111.9" height="1.22" fill="#fff"/>

<rect x="280.88" y="608.19" width="111.9" height="1.22" fill="#fff"/>

</g>

<path d="M332.14,549.2s12,13.38,12,28l47.09-20.63Z" fill="#0071f2" data-primary="true"/>

<rect x="99.65" y="494.47" width="172.72" height="124.06" fill="#2f2e41" data-secondary="true"/>

<rect x="94.79" y="468.92" width="182.45" height="30.41" fill="#2f2e41" data-secondary="true"/>

<rect x="94.79" y="468.92" width="182.45" height="30.41" opacity="0.2"/>

</svg>